<svg xmlns="http://www.w3.org/2000/svg" width="16" height="16" fill="none" viewBox="0 0 16 16">
  <path fill="#587072" d="M15 1.966V6.31a.972.972 0 0 1-.966.966H9.69a.953.953 0 0 1-.966-.966c0-.513.423-.965.966-.965h1.9a4.875 4.875 0 0 0-3.862-1.901 4.79 4.79 0 0 0-4.797 4.797 4.797 4.797 0 0 0 4.797 4.828 4.777 4.777 0 0 0 2.897-.966 1 1 0 0 1 1.358.212.966.966 0 0 1-.181 1.357A6.784 6.784 0 0 1 7.728 15C4.018 15 1 11.983 1 8.241a6.735 6.735 0 0 1 6.728-6.728c2.113 0 4.044.965 5.341 2.595V1.966c0-.513.422-.966.965-.966.513 0 .966.453.966.966Z"/>
</svg>
