<svg xmlns="http://www.w3.org/2000/svg" width="16" height="16" fill="none" viewBox="0 0 16 16">
  <path fill="#161C1D" d="M12.954 11.477a1.013 1.013 0 0 1 0 1.477 1.02 1.02 0 0 1-.722.296 1.04 1.04 0 0 1-.755-.296L8.029 9.506l-3.481 3.448a1.02 1.02 0 0 1-.723.296 1.04 1.04 0 0 1-.755-.296 1.013 1.013 0 0 1 0-1.477l3.448-3.481L3.07 4.548a1.013 1.013 0 0 1 0-1.478 1.013 1.013 0 0 1 1.478 0l3.48 3.448 3.449-3.448a1.013 1.013 0 0 1 1.477 0 1.013 1.013 0 0 1 0 1.478l-3.448 3.48 3.448 3.449Z"/>
</svg>
