<svg xmlns="http://www.w3.org/2000/svg" width="16" height="16" fill="none" viewBox="0 0 16 16">
  <path fill="#587072" d="m12.23 7.324.31-.31-.928-.927-1.7-1.7-.928-.928-.31.31-.618.618L2.604 9.84a2.427 2.427 0 0 0-.608 1.023l-.969 3.296a.649.649 0 0 0 .167.648c.173.17.419.233.649.168l3.293-.97a2.427 2.427 0 0 0 1.023-.607l5.453-5.453.618-.62Zm-6.85 4.61-.25.62c-.11.086-.233.149-.364.19l-2.14.63.63-2.139a1.05 1.05 0 0 1 .188-.364l.621-.249v.876a.44.44 0 0 0 .438.438h.876v-.002Zm5.547-10.42-.394.396-.618.619-.312.309.928.928 1.7 1.7.927.928.31-.31.618-.618.397-.397a1.751 1.751 0 0 0 0-2.477l-1.076-1.079a1.751 1.751 0 0 0-2.477 0h-.003ZM9.63 6.111l-3.942 3.941a.44.44 0 0 1-.618 0 .44.44 0 0 1 0-.619l3.94-3.94a.44.44 0 0 1 .619 0 .44.44 0 0 1 0 .619Z"/>
</svg>
