<svg xmlns="http://www.w3.org/2000/svg" width="16" height="16" fill="none" viewBox="0 0 16 16">
  <path fill="#161C1D" d="M7.813 10.625A2.608 2.608 0 0 1 5.188 8V3.625A2.608 2.608 0 0 1 7.813 1a2.626 2.626 0 0 1 2.625 2.625V8a2.608 2.608 0 0 1-2.626 2.625Zm4.156-4.375c.355 0 .656.3.656.656V8c0 2.434-1.832 4.457-4.156 4.785v.902h1.094c.492 0 .874.438.847.93 0 .219-.191.383-.41.383H5.625c-.246 0-.438-.164-.438-.383a.877.877 0 0 1 .875-.93h1.094v-.957C4.723 12.402 3 10.215 3 7.781v-.875c0-.355.273-.656.656-.656.356 0 .656.3.656.656v.957c0 1.832 1.45 3.528 3.254 3.637A3.5 3.5 0 0 0 11.313 8V6.906c0-.355.273-.656.656-.656Z"/>
</svg>
