<svg xmlns="http://www.w3.org/2000/svg" width="16" height="16" fill="none" viewBox="0 0 16 16">
  <path fill="#00BFC8" d="M9.955 3.33a.316.316 0 0 0-.205.295c0 .131.082.249.205.295l1.545.58.58 1.545a.316.316 0 0 0 .59 0l.58-1.545 1.545-.58a.316.316 0 0 0 0-.59l-1.545-.58-.58-1.545a.316.316 0 0 0-.59 0L11.5 2.75l-1.545.58Zm-3.347-.326a.436.436 0 0 0-.793 0L4.371 6.121 1.254 7.562a.437.437 0 0 0 0 .796L4.374 9.8l1.439 3.117a.436.436 0 0 0 .792 0l1.441-3.12 3.12-1.44a.436.436 0 0 0 0-.793L8.05 6.123l-1.44-3.12ZM11.5 11.5l-1.545.58a.316.316 0 0 0 0 .59l1.545.58.58 1.545a.316.316 0 0 0 .59 0l.58-1.545 1.545-.58a.316.316 0 0 0 0-.59l-1.545-.58-.58-1.545a.316.316 0 0 0-.59 0L11.5 11.5Z"/>
  <path fill="url(#a)" d="M9.955 3.33a.316.316 0 0 0-.205.295c0 .131.082.249.205.295l1.545.58.58 1.545a.316.316 0 0 0 .59 0l.58-1.545 1.545-.58a.316.316 0 0 0 0-.59l-1.545-.58-.58-1.545a.316.316 0 0 0-.59 0L11.5 2.75l-1.545.58Zm-3.347-.326a.436.436 0 0 0-.793 0L4.371 6.121 1.254 7.562a.437.437 0 0 0 0 .796L4.374 9.8l1.439 3.117a.436.436 0 0 0 .792 0l1.441-3.12 3.12-1.44a.436.436 0 0 0 0-.793L8.05 6.123l-1.44-3.12ZM11.5 11.5l-1.545.58a.316.316 0 0 0 0 .59l1.545.58.58 1.545a.316.316 0 0 0 .59 0l.58-1.545 1.545-.58a.316.316 0 0 0 0-.59l-1.545-.58-.58-1.545a.316.316 0 0 0-.59 0L11.5 11.5Z"/>
  <defs>
    <linearGradient id="a" x1="3.24" x2="12.69" y1="2.96" y2="13.81" gradientUnits="userSpaceOnUse">
      <stop stop-color="#722ED1"/>
      <stop offset=".98" stop-color="#00C1CA"/>
    </linearGradient>
  </defs>
</svg>
