<svg xmlns="http://www.w3.org/2000/svg" width="16" height="16" fill="none" viewBox="0 0 16 16">
  <path fill="#587072" d="M9.559 1.874c.71.164 1.175.847 1.039 1.558l-.082.301a6.612 6.612 0 0 1-.766 2.051h3.938c.71 0 1.312.602 1.312 1.312 0 .52-.3.958-.71 1.176.3.246.491.602.491 1.012a1.35 1.35 0 0 1-1.066 1.313c.11.19.191.41.191.656 0 .601-.383 1.094-.93 1.258a.974.974 0 0 1 .055.273c0 .738-.601 1.313-1.312 1.313h-2.68a2.51 2.51 0 0 1-1.45-.438l-1.066-.684a2.671 2.671 0 0 1-1.148-2.187V7.753c0-.82.355-1.559.984-2.051l.192-.164c.71-.602 1.23-1.395 1.394-2.324L8 2.913c.164-.711.848-1.176 1.559-1.04ZM1.875 6.22h1.75a.9.9 0 0 1 .875.875v6.126c0 .492-.41.875-.875.875h-1.75A.864.864 0 0 1 1 13.222V7.096c0-.464.383-.875.875-.875Z"/>
</svg>
