<svg xmlns="http://www.w3.org/2000/svg" width="16" height="16" fill="none" viewBox="0 0 16 16">
  <path fill="#587072" d="M5.161 2c-.748 0-1.355.568-1.355 1.268 0 .166.037.322.096.467-.575.145-.999.636-.999 1.223 0 .24.074.464.198.657C2.474 5.726 2 6.241 2 6.86c0 .52.336.966.816 1.162-.48.195-.816.641-.816 1.162 0 .7.607 1.267 1.355 1.267H7.87l-.796 1.86a1.35 1.35 0 0 0-.107.525v.11c0 .721.624 1.305 1.394 1.305.528 0 1.01-.28 1.248-.72l1.589-2.966a2.39 2.39 0 0 0 .285-1.133V4.503a1.66 1.66 0 0 0-.678-1.32l-.344-.256A4.715 4.715 0 0 0 7.642 2h-2.48Zm8.58 1.69c-.499 0-.902.378-.902.845v6.76c0 .467.403.845.903.845h1.355c.5 0 .903-.378.903-.845v-6.76c0-.467-.404-.845-.903-.845h-1.355Z"/>
</svg>
