<svg xmlns="http://www.w3.org/2000/svg" width="26" height="26" fill="none" viewBox="0 0 26 26">
  <path fill="#00BFC8" d="M12.392.104c1.735-.1 3.52-.257 5.323.247 1.474.413 2.476 1.234 3.055 2.364.513 1 .673 2.198.595 3.49 2.324.639 4.07 2.431 4.467 4.86l.007.04v.005c1.16 7.257-4.063 13.92-11.248 14.793C7.297 26.792.7 21.482.05 14.204-.596 6.91 4.949.526 12.393.104Zm1.617 24.119Zm2.094-.384Zm.542-21.457c-1.358-.264-2.698-.144-4.19-.053C6.272 2.71 1.724 8.025 2.28 14.037l.03.28c.697 5.871 6.09 10.103 12.023 9.37l.188-.023c5.886-.832 10.1-6.345 9.1-12.294-.234-1.399-1.228-2.492-2.552-2.918l-1.435 9.804c-.186 1.27-1.398 2.058-2.604 1.805L7.027 17.952c-1.15-.24-2.119-1.326-2.122-2.553L4.9 13.873c-.003-1.499.006-2.93.08-4.406.067-1.333 1.121-2.276 2.36-2.39l11.794-1.089c.05-.857-.035-1.592-.31-2.169-.302-.634-.863-1.137-1.906-1.38l-.273-.057ZM7.52 16.304l9.779 2.052-9.779-2.052Zm11.618 1.879h.001l1.515-10.349-1.515 10.349ZM7.48 9.3a.232.232 0 0 0-.176.094.785.785 0 0 0-.132.288l-.047 5.64c-.002.155.142.391.435.477l.06.015h.002l9.78 2.051.012.003.013.003a.02.02 0 0 0 .007.001.015.015 0 0 0 .01-.007.046.046 0 0 0 .006-.018v-.001l1.37-9.58L7.48 9.3ZM.5 13.188a12.546 12.546 0 0 0 .009.317L.5 13.188Zm23.761-.434ZM.568 11.758a12.34 12.34 0 0 0-.067 1.11v.313c-.005-.48.018-.955.067-1.423Zm24.77-.611v.002-.002Zm-24.302-1.7Zm4.549-.51c-.011.032-.02.066-.029.1.01-.034.018-.068.029-.1ZM19.402 7.71v.001h.003-.003Zm-13.669.9-.035.068.035-.069Zm-4.157-.604Zm4.258.445-.051.078.05-.078Zm.103-.135-.048.061.048-.061Zm.118-.13-.061.066.061-.065Zm.135-.123c-.029.024-.056.05-.084.076.028-.026.055-.052.084-.076Zm.134-.102c-.026.018-.051.038-.076.058.025-.02.05-.04.076-.058Zm.147-.095-.062.04.062-.04Zm.152-.08c-.016.007-.031.016-.047.024l.047-.025Zm.18-.078Zm.176-.057Zm.184-.044ZM1.84 7.455c-.03.057-.056.114-.084.171.028-.057.055-.114.084-.17Zm5.452.131-.054.009c.05-.008.098-.015.148-.02l-.094.011Zm-5.16-.67c-.015.024-.028.05-.042.075l.042-.076Zm.306-.508-.023.04.023-.04Zm.344-.51-.048.068.048-.068Zm.373-.498c-.068.086-.132.176-.198.264.066-.088.13-.178.198-.264Zm.384-.465c-.076.087-.148.176-.22.265.072-.089.144-.178.22-.265Zm.417-.457c-.08.083-.157.17-.235.256.078-.086.155-.173.235-.256Zm15.543-.246ZM4.38 4.056c-.078.073-.152.15-.227.224.075-.075.15-.151.227-.224Zm.914-.79-.038.031.038-.03Zm.504-.373-.062.044.062-.044Zm.275-.189Zm.252-.163Zm11.983-.057v-.001Zm-11.746-.09-.072.046.072-.045Zm.267-.156-.046.028.046-.028Zm.3-.164-.109.059.11-.059Zm9.901-.122v.001Zm-9.6-.032-.17.085.17-.085Zm.269-.13Zm4.726.04v.001ZM7.96 1.67l-.138.063.138-.063Zm.29-.124-.124.052.125-.052Zm.302-.12-.15.058.15-.057Zm.295-.108-.155.055.155-.055Zm.334-.114Zm.246-.076Zm.308-.089-.089.025.09-.025Zm.336-.087Zm.315-.072-.164.036.163-.036Zm.306-.063-.15.03.15-.03Zm.675-.112Zm.29-.037-.152.02.152-.02Zm.33-.033Zm.265-.022-.08.006c.083-.006.165-.012.248-.016l-.168.01ZM5.654 8.767Z"/>
  <path fill="url(#a)" d="M12.392.104c1.735-.1 3.52-.257 5.323.247 1.474.413 2.476 1.234 3.055 2.364.513 1 .673 2.198.595 3.49 2.324.639 4.07 2.431 4.467 4.86l.007.04v.005c1.16 7.257-4.063 13.92-11.248 14.793C7.297 26.792.7 21.482.05 14.204-.596 6.91 4.949.526 12.393.104Zm1.617 24.119Zm2.094-.384Zm.542-21.457c-1.358-.264-2.698-.144-4.19-.053C6.272 2.71 1.724 8.025 2.28 14.037l.03.28c.697 5.871 6.09 10.103 12.023 9.37l.188-.023c5.886-.832 10.1-6.345 9.1-12.294-.234-1.399-1.228-2.492-2.552-2.918l-1.435 9.804c-.186 1.27-1.398 2.058-2.604 1.805L7.027 17.952c-1.15-.24-2.119-1.326-2.122-2.553L4.9 13.873c-.003-1.499.006-2.93.08-4.406.067-1.333 1.121-2.276 2.36-2.39l11.794-1.089c.05-.857-.035-1.592-.31-2.169-.302-.634-.863-1.137-1.906-1.38l-.273-.057ZM7.52 16.304l9.779 2.052-9.779-2.052Zm11.618 1.879h.001l1.515-10.349-1.515 10.349ZM7.48 9.3a.232.232 0 0 0-.176.094.785.785 0 0 0-.132.288l-.047 5.64c-.002.155.142.391.435.477l.06.015h.002l9.78 2.051.012.003.013.003a.02.02 0 0 0 .007.001.015.015 0 0 0 .01-.007.046.046 0 0 0 .006-.018v-.001l1.37-9.58L7.48 9.3ZM.5 13.188a12.546 12.546 0 0 0 .009.317L.5 13.188Zm23.761-.434ZM.568 11.758a12.34 12.34 0 0 0-.067 1.11v.313c-.005-.48.018-.955.067-1.423Zm24.77-.611v.002-.002Zm-24.302-1.7Zm4.549-.51c-.011.032-.02.066-.029.1.01-.034.018-.068.029-.1ZM19.402 7.71v.001h.003-.003Zm-13.669.9-.035.068.035-.069Zm-4.157-.604Zm4.258.445-.051.078.05-.078Zm.103-.135-.048.061.048-.061Zm.118-.13-.061.066.061-.065Zm.135-.123c-.029.024-.056.05-.084.076.028-.026.055-.052.084-.076Zm.134-.102c-.026.018-.051.038-.076.058.025-.02.05-.04.076-.058Zm.147-.095-.062.04.062-.04Zm.152-.08c-.016.007-.031.016-.047.024l.047-.025Zm.18-.078Zm.176-.057Zm.184-.044ZM1.84 7.455c-.03.057-.056.114-.084.171.028-.057.055-.114.084-.17Zm5.452.131-.054.009c.05-.008.098-.015.148-.02l-.094.011Zm-5.16-.67c-.015.024-.028.05-.042.075l.042-.076Zm.306-.508-.023.04.023-.04Zm.344-.51-.048.068.048-.068Zm.373-.498c-.068.086-.132.176-.198.264.066-.088.13-.178.198-.264Zm.384-.465c-.076.087-.148.176-.22.265.072-.089.144-.178.22-.265Zm.417-.457c-.08.083-.157.17-.235.256.078-.086.155-.173.235-.256Zm15.543-.246ZM4.38 4.056c-.078.073-.152.15-.227.224.075-.075.15-.151.227-.224Zm.914-.79-.038.031.038-.03Zm.504-.373-.062.044.062-.044Zm.275-.189Zm.252-.163Zm11.983-.057v-.001Zm-11.746-.09-.072.046.072-.045Zm.267-.156-.046.028.046-.028Zm.3-.164-.109.059.11-.059Zm9.901-.122v.001Zm-9.6-.032-.17.085.17-.085Zm.269-.13Zm4.726.04v.001ZM7.96 1.67l-.138.063.138-.063Zm.29-.124-.124.052.125-.052Zm.302-.12-.15.058.15-.057Zm.295-.108-.155.055.155-.055Zm.334-.114Zm.246-.076Zm.308-.089-.089.025.09-.025Zm.336-.087Zm.315-.072-.164.036.163-.036Zm.306-.063-.15.03.15-.03Zm.675-.112Zm.29-.037-.152.02.152-.02Zm.33-.033Zm.265-.022-.08.006c.083-.006.165-.012.248-.016l-.168.01ZM5.654 8.767Z"/>
  <defs>
    <linearGradient id="a" x1="4.16" x2="21.71" y1="3.64" y2="23.79" gradientUnits="userSpaceOnUse">
      <stop stop-color="#722ED1"/>
      <stop offset=".98" stop-color="#00C1CA"/>
    </linearGradient>
  </defs>
</svg>
